Coordinates
version=1
nRows=37
nColumns=30
inDegrees=yes

Units are S.I. units (second, meters, Newtons, ...)
Angles are in degrees.

endheader
time	floatyaw	floatroll	floatpitch	floatx	floaty	floatz	pro_sup_l	deviation_l	flexion_l	cmc_flexion_l	cmc_abduction_l	mp_flexion_l	ip_flexion_l	2mcp_flexion_l	2mcp_abduction_l	2pm_flexion_l	2md_flexion_l	3mcp_flexion_l	3mcp_abduction_l	3pm_flexion_l	3md_flexion_l	4mcp_flexion_l	4mcp_abduction_l	4pm_flexion_l	4md_flexion_l	5mcp_flexion_l	5mcp_abduction_l	5pm_flexion_l	5md_flexion_l
-1.495000	3.267846	-2.569086	98.473996	-0.106469	-0.195285	-0.032410	87.683889	0.746656	-1.403696	19.706452	1.690717	-21.379220	-34.840901	35.854734	8.908581	46.011710	32.450347	22.852659	4.821738	44.772775	30.139752	13.729387	-4.569108	58.644473	40.120506	10.662163	-9.703062	57.481677	40.654212
-1.485000	3.267846	-2.569086	98.473996	-0.106467	-0.195277	-0.032403	87.689745	0.746640	-1.400345	19.694346	1.686338	-21.386123	-34.843798	35.849916	8.903058	46.016689	32.454444	22.845205	4.820992	44.773994	30.155516	13.721602	-4.565284	58.637940	40.119302	10.663937	-9.695834	57.460911	40.642095
-1.475000	3.267846	-2.569086	98.473996	-0.106467	-0.195270	-0.032394	87.697280	0.746003	-1.398073	19.680183	1.681594	-21.388402	-34.843780	35.846385	8.897763	46.023935	32.459271	22.844337	4.817863	44.773750	30.168689	13.713811	-4.560170	58.629084	40.118771	10.659430	-9.687624	57.450100	40.634417
-1.465000	3.267846	-2.569086	98.473996	-0.106466	-0.195262	-0.032384	87.705029	0.744876	-1.397621	19.663174	1.675717	-21.387747	-34.841804	35.846108	8.892637	46.032258	32.463906	22.851777	4.812603	44.773479	30.178253	13.707526	-4.554480	58.620336	40.119818	10.648338	-9.678726	57.451296	40.632282
-1.455000	3.267846	-2.569086	98.473996	-0.106465	-0.195255	-0.032374	87.710600	0.742873	-1.399182	19.642967	1.667327	-21.386812	-34.839247	35.850752	8.887397	46.038761	32.466624	22.866711	4.806406	44.773240	30.183351	13.704366	-4.549265	58.612413	40.122432	10.632710	-9.668977	57.460044	40.634404
-1.445000	3.267846	-2.569086	98.473996	-0.106463	-0.195250	-0.032364	87.711382	0.739151	-1.402276	19.619773	1.655723	-21.387884	-34.837026	35.860571	8.881764	46.041183	32.466215	22.885536	4.800910	44.773039	30.184315	13.705029	-4.545677	58.605504	40.126347	10.616078	-9.658605	57.468679	40.637763
-1.435000	3.267846	-2.569086	98.473996	-0.106462	-0.195247	-0.032355	87.705714	0.732872	-1.405744	19.594647	1.641949	-21.391774	-34.835182	35.873777	8.875815	46.039794	32.463024	22.902808	4.797492	44.774213	30.183327	13.708616	-4.544610	58.600687	40.131720	10.602133	-9.648687	57.470799	40.638943
-1.425000	3.267846	-2.569086	98.473996	-0.106461	-0.195248	-0.032346	87.693937	0.723796	-1.407908	19.569644	1.628454	-21.397623	-34.833172	35.886817	8.870211	46.037631	32.459047	22.913093	4.796757	44.779500	30.184053	13.712702	-4.546319	58.600324	40.139287	10.593762	-9.640938	57.464334	40.635444
-1.415000	3.267846	-2.569086	98.473996	-0.106459	-0.195250	-0.032337	87.678643	0.712613	-1.407051	19.547450	1.617493	-21.403688	-34.830604	35.895651	8.866045	46.038898	32.456997	22.913036	4.798435	44.791621	30.190214	13.714373	-4.550232	58.607013	40.149837	10.592513	-9.636878	57.451813	40.626468
-1.405000	3.267846	-2.569086	98.473996	-0.106456	-0.195252	-0.032329	87.663769	0.700755	-1.402230	19.530478	1.609570	-21.408525	-34.827871	35.897589	8.864357	46.046592	32.458911	22.902684	4.801648	44.811509	30.203793	13.711940	-4.555224	58.621884	40.163392	10.598307	-9.636838	57.438290	40.613064
-1.395000	3.267846	-2.569086	98.473996	-0.106454	-0.195252	-0.032323	87.652944	0.689802	-1.394029	19.519937	1.603179	-21.411772	-34.826241	35.892720	8.865603	46.060943	32.465201	22.885331	4.805361	44.837506	30.223948	13.706495	-4.560273	58.643495	40.178650	10.609550	-9.639520	57.428551	40.597667
-1.385000	3.267846	-2.569086	98.473996	-0.106451	-0.195250	-0.032318	87.648032	0.680875	-1.384706	19.515395	1.595906	-21.414100	-34.827319	35.884034	8.869387	46.079604	32.474679	22.865939	4.808844	44.865960	30.247272	13.702126	-4.565066	58.668101	40.193128	10.623909	-9.642524	57.425121	40.583211
-1.375000	3.267846	-2.569086	98.473996	-0.106449	-0.195249	-0.032314	87.648673	0.674376	-1.377429	19.514970	1.585836	-21.416622	-34.832251	35.876084	8.874578	46.099150	32.485370	22.849084	4.811917	44.892568	30.269259	13.704200	-4.570039	58.690997	40.203968	10.639610	-9.643628	57.427615	40.572052
-1.365000	3.267846	-2.569086	98.473996	-0.106446	-0.195249	-0.032310	87.652976	0.670137	-1.374907	19.515898	1.572256	-21.420217	-34.841104	35.872988	8.879756	46.116698	32.495446	22.837557	4.814869	44.913669	30.286167	13.716390	-4.575760	58.708041	40.209004	10.656511	-9.642077	57.433162	40.565092
-1.355000	3.267846	-2.569086	98.473996	-0.106444	-0.195252	-0.032306	87.658819	0.667750	-1.378118	19.515223	1.555450	-21.425112	-34.852651	35.876870	8.883772	46.130720	32.503743	22.832165	4.818100	44.927119	30.296341	13.738226	-4.582152	58.716711	40.207617	10.675980	-9.639013	57.437553	40.561474
-1.345000	3.267846	-2.569086	98.473996	-0.106440	-0.195257	-0.032300	87.665026	0.666850	-1.385856	19.510495	1.536046	-21.430793	-34.864605	35.887421	8.886106	46.140961	32.509757	22.832400	4.821705	44.932674	30.300427	13.764817	-4.588238	58.716577	40.201003	10.699247	-9.636574	57.436944	40.559092
-1.335000	3.267846	-2.569086	98.473996	-0.106435	-0.195261	-0.032292	87.671842	0.667279	-1.395402	19.500424	1.514463	-21.436303	-34.874289	35.902539	8.886821	46.147894	32.513393	22.837280	4.825255	44.931878	30.300560	13.789157	-4.592673	58.709298	40.191741	10.725178	-9.636082	57.429712	40.555786
-1.325000	3.267846	-2.569086	98.473996	-0.106429	-0.195262	-0.032281	87.680496	0.669103	-1.403892	19.485354	1.490870	-21.440828	-34.879657	35.919461	8.886222	46.152167	32.514740	22.845772	4.827911	44.927532	30.299155	13.805748	-4.594633	58.698140	40.182798	10.749293	-9.636597	57.417587	40.550614
-1.315000	3.267846	-2.569086	98.473996	-0.106423	-0.195259	-0.032269	87.692019	0.672361	-1.409559	19.467247	1.465782	-21.444238	-34.880222	35.935793	8.884589	46.154333	32.514004	22.856723	4.828865	44.922969	30.297975	13.813377	-4.594406	58.687018	40.176401	10.765263	-9.635061	57.405304	40.544453
-1.305000	3.267846	-2.569086	98.473996	-0.106416	-0.195254	-0.032257	87.705968	0.676586	-1.412182	19.448950	1.440881	-21.447183	-34.877336	35.950069	8.882181	46.154920	32.511588	22.868573	4.827895	44.921310	30.297828	13.815341	-4.593270	58.679460	40.173391	10.768316	-9.628178	57.398833	40.539546
-1.295000	3.267846	-2.569086	98.473996	-0.106408	-0.195248	-0.032246	87.719961	0.680486	-1.412694	19.432981	1.419122	-21.450662	-34.873565	35.961807	8.879406	46.154739	32.508213	22.879307	4.825677	44.924788	30.298826	13.817018	-4.592778	58.677951	40.173410	10.758410	-9.614892	57.402996	40.538235
-1.285000	3.267846	-2.569086	98.473996	-0.106400	-0.195244	-0.032238	87.730596	0.682255	-1.412416	19.420514	1.403496	-21.455380	-34.871496	35.971210	8.876843	46.155182	32.504961	22.886827	4.823575	44.934260	30.300920	13.822323	-4.593890	58.683769	40.175729	10.741072	-9.597773	57.419523	40.541587
-1.275000	3.267846	-2.569086	98.473996	-0.106392	-0.195244	-0.032231	87.735342	0.680512	-1.412406	19.411189	1.395059	-21.461342	-34.872671	35.978773	8.875027	46.158238	32.503170	22.889635	4.822945	44.949147	30.304370	13.831359	-4.596480	58.697020	40.180021	10.725338	-9.582291	57.446286	40.548650
-1.265000	3.267846	-2.569086	98.473996	-0.106382	-0.195247	-0.032225	87.734232	0.675316	-1.413200	19.403732	1.391845	-21.467915	-34.877189	35.985025	8.874184	46.166008	32.504096	22.887472	4.824406	44.967960	30.309858	13.840742	-4.599456	58.716586	40.186512	10.720136	-9.574274	57.477938	40.556718
-1.255000	3.267846	-2.569086	98.473996	-0.106371	-0.195251	-0.032218	87.730208	0.668472	-1.414861	19.396801	1.389743	-21.474309	-34.884073	35.990429	8.874189	46.179779	32.508411	22.881558	4.827521	44.989079	30.318132	13.846293	-4.601448	58.740092	40.195466	10.731066	-9.576987	57.507623	40.562484
-1.245000	3.267846	-2.569086	98.473996	-0.106359	-0.195253	-0.032210	87.727859	0.662879	-1.417173	19.389474	1.384781	-21.480104	-34.892024	35.995330	8.874738	46.199120	32.515788	22.874192	4.831102	45.011205	30.329374	13.846121	-4.601652	58.764207	40.206507	10.758854	-9.589446	57.529048	40.563461
-1.235000	3.267846	-2.569086	98.473996	-0.106345	-0.195252	-0.032201	87.731281	0.661260	-1.419818	19.381239	1.375081	-21.485367	-34.899920	35.999851	8.875503	46.221707	32.524916	22.867844	4.833875	45.033169	30.342752	13.841913	-4.600315	58.785349	40.218326	10.799597	-9.606820	57.538296	40.558951
-1.225000	3.267846	-2.569086	98.473996	-0.106332	-0.195247	-0.032193	87.742243	0.665006	-1.422541	19.371795	1.361082	-21.490230	-34.906772	36.003782	8.876144	46.244178	32.534059	22.864281	4.835074	45.053427	30.356519	13.837608	-4.598542	58.800565	40.229006	10.846181	-9.622574	57.534992	40.550151
-1.215000	3.267846	-2.569086	98.473996	-0.106319	-0.195239	-0.032186	87.759585	0.673683	-1.425251	19.361007	1.344031	-21.494403	-34.911425	36.006517	8.876253	46.263545	32.541859	22.864250	4.834619	45.069843	30.368630	13.836630	-4.597577	58.808227	40.236766	10.890298	-9.631122	57.522578	40.539485
-1.205000	3.267846	-2.569086	98.473996	-0.106308	-0.195231	-0.032181	87.780005	0.685319	-1.428020	19.349086	1.324112	-21.497216	-34.912643	36.007072	8.875442	46.278254	32.547862	22.867766	4.832909	45.080019	30.377460	13.839878	-4.598140	58.808345	40.240679	10.924716	-9.629737	57.507406	40.529542
-1.195000	3.267846	-2.569086	98.473996	-0.106301	-0.195225	-0.032178	87.799665	0.697191	-1.430974	19.336722	1.299886	-21.498262	-34.909735	36.004387	8.873599	46.288376	32.552512	22.874587	4.830455	45.082123	30.382282	13.845997	-4.600265	58.802421	40.241001	10.945346	-9.618989	57.496721	40.522134
-1.185000	3.267846	-2.569086	98.473996	-0.106297	-0.195223	-0.032175	87.815689	0.706735	-1.434232	19.324900	1.269765	-21.498011	-34.903293	35.998092	8.871096	46.295121	32.556709	22.884530	4.827644	45.075901	30.383438	13.853552	-4.603614	58.792810	40.238935	10.952307	-9.601814	57.496258	40.517894
-1.175000	3.267846	-2.569086	98.473996	-0.106296	-0.195226	-0.032171	87.826952	0.712313	-1.438021	19.314364	1.234460	-21.497806	-34.895314	35.989522	8.868697	46.300142	32.561252	22.897519	4.824744	45.063380	30.382255	13.863159	-4.607824	58.781787	40.235995	10.949316	-9.581889	57.508493	40.516521
-1.165000	3.267846	-2.569086	98.473996	-0.106297	-0.195231	-0.032165	87.834041	0.713656	-1.442805	19.305080	1.198295	-21.499164	-34.888461	35.982085	8.867165	46.304854	32.566421	22.913458	4.822031	45.048701	30.380715	13.877642	-4.612571	58.770749	40.233344	10.941728	-9.562181	57.532067	40.517343
-1.155000	3.267846	-2.569086	98.473996	-0.106297	-0.195236	-0.032157	87.838579	0.711819	-1.449164	19.296125	1.167971	-21.502889	-34.884834	35.980245	8.866870	46.309841	32.571831	22.931992	4.819860	45.036931	30.380876	13.899905	-4.617417	58.759974	40.231450	10.934530	-9.544337	57.562308	40.519661
-1.145000	3.267846	-2.569086	98.473996	-0.106295	-0.195240	-0.032147	87.842192	0.708503	-1.457362	19.286170	1.149428	-21.508633	-34.885011	35.987359	8.867725	46.314589	32.576640	22.952273	4.818557	45.032393	30.384273	13.930086	-4.621693	58.749062	40.230194	10.931404	-9.528996	57.592569	40.522730
-1.135000	3.267846	-2.569086	98.473996	-0.106290	-0.195242	-0.032136	87.845520	0.705029	-1.466906	19.274285	1.144946	-21.515233	-34.888010	36.003721	8.869401	46.317896	32.580086	22.972843	4.818236	45.037396	30.391591	13.964236	-4.624627	58.737825	40.229321	10.934906	-9.516595	57.616123	40.525615
